<?xml version="1.0" standalone="no"?>
<!DOCTYPE svg PUBLIC "-//W3C//DTD SVG 20010904//EN"
 "http://www.w3.org/TR/2001/REC-SVG-20010904/DTD/svg10.dtd">
<svg version="1.0" xmlns="http://www.w3.org/2000/svg"
 width="192.000000pt" height="188.000000pt" viewBox="0 0 192.000000 188.000000"
 preserveAspectRatio="xMidYMid meet">

<g transform="translate(0.000000,188.000000) scale(0.100000,-0.100000)"
fill="#000000" stroke="none">
<path d="M875 1828 c-70 -25 -135 -105 -135 -165 0 -21 -4 -21 -212 -25 -229
-3 -241 -6 -272 -59 -14 -24 -16 -101 -16 -741 0 -695 1 -714 20 -746 11 -18
32 -37 46 -42 17 -7 253 -9 650 -8 l624 3 27 28 28 27 3 723 c3 645 1 725 -13
752 -30 57 -41 60 -271 63 l-212 3 -6 38 c-8 51 -55 114 -102 136 -47 22 -118
28 -159 13z m-353 -398 c5 -124 -28 -115 419 -115 l381 0 19 24 c15 18 19 39
19 97 l0 74 75 0 75 0 0 -670 0 -670 -570 0 -570 0 0 670 0 670 74 0 74 0 4
-80z"/>
<path d="M1062 888 l-282 -283 0 143 0 142 -130 0 -130 0 0 -35 0 -35 55 0 55
0 0 -199 c0 -109 3 -213 6 -230 7 -31 8 -32 57 -29 l51 3 289 375 c336 437
331 430 320 430 -4 0 -135 -127 -291 -282z"/>
</g>
</svg>
